<mxfile host="app.diagrams.net" agent="Mozilla/5.0 (Windows NT 10.0; Win64; x64) AppleWebKit/537.36 (KHTML, like Gecko) Chrome/138.0.0.0 Safari/537.36 Edg/138.0.0.0" version="28.0.4" pages="4">
  <diagram id="ErWEe3RkHl4P5wzTKjCB" name="SVES">
    <mxGraphModel dx="1418" dy="752" grid="1" gridSize="10" guides="1" tooltips="1" connect="1" arrows="1" fold="1" page="1" pageScale="1" pageWidth="850" pageHeight="1100" math="0" shadow="0">
      <root>
        <mxCell id="0" />
        <mxCell id="1" parent="0" />
        <mxCell id="MLg9Y7SFyvmeRMdnVMhF-10" style="edgeStyle=orthogonalEdgeStyle;rounded=0;orthogonalLoop=1;jettySize=auto;html=1;" parent="1" source="MLg9Y7SFyvmeRMdnVMhF-1" target="MLg9Y7SFyvmeRMdnVMhF-5" edge="1">
          <mxGeometry relative="1" as="geometry" />
        </mxCell>
        <mxCell id="MLg9Y7SFyvmeRMdnVMhF-1" value="AWARE system" style="rounded=1;whiteSpace=wrap;html=1;" parent="1" vertex="1">
          <mxGeometry x="230" y="60" width="120" height="60" as="geometry" />
        </mxCell>
        <mxCell id="MLg9Y7SFyvmeRMdnVMhF-2" value="Actor" style="shape=umlActor;verticalLabelPosition=bottom;verticalAlign=top;html=1;outlineConnect=0;" parent="1" vertex="1">
          <mxGeometry x="120" y="70" width="30" height="60" as="geometry" />
        </mxCell>
        <mxCell id="MLg9Y7SFyvmeRMdnVMhF-4" style="edgeStyle=orthogonalEdgeStyle;rounded=0;orthogonalLoop=1;jettySize=auto;html=1;entryX=-0.167;entryY=0.667;entryDx=0;entryDy=0;entryPerimeter=0;" parent="1" source="MLg9Y7SFyvmeRMdnVMhF-2" target="MLg9Y7SFyvmeRMdnVMhF-1" edge="1">
          <mxGeometry relative="1" as="geometry" />
        </mxCell>
        <mxCell id="MLg9Y7SFyvmeRMdnVMhF-11" style="edgeStyle=orthogonalEdgeStyle;rounded=0;orthogonalLoop=1;jettySize=auto;html=1;" parent="1" source="MLg9Y7SFyvmeRMdnVMhF-5" target="MLg9Y7SFyvmeRMdnVMhF-8" edge="1">
          <mxGeometry relative="1" as="geometry" />
        </mxCell>
        <mxCell id="MLg9Y7SFyvmeRMdnVMhF-5" value="AWARE DB" style="shape=cylinder3;whiteSpace=wrap;html=1;boundedLbl=1;backgroundOutline=1;size=15;" parent="1" vertex="1">
          <mxGeometry x="570" y="50" width="60" height="80" as="geometry" />
        </mxCell>
        <mxCell id="MLg9Y7SFyvmeRMdnVMhF-7" value="SSA System" style="rounded=1;whiteSpace=wrap;html=1;" parent="1" vertex="1">
          <mxGeometry x="60" y="260" width="120" height="60" as="geometry" />
        </mxCell>
        <mxCell id="MLg9Y7SFyvmeRMdnVMhF-13" style="edgeStyle=orthogonalEdgeStyle;rounded=0;orthogonalLoop=1;jettySize=auto;html=1;entryX=1;entryY=0.5;entryDx=0;entryDy=0;" parent="1" source="MLg9Y7SFyvmeRMdnVMhF-8" target="MLg9Y7SFyvmeRMdnVMhF-12" edge="1">
          <mxGeometry relative="1" as="geometry" />
        </mxCell>
        <mxCell id="MLg9Y7SFyvmeRMdnVMhF-8" value="SVES request process&lt;div&gt;Friday 4 pm&lt;/div&gt;" style="ellipse;whiteSpace=wrap;html=1;" parent="1" vertex="1">
          <mxGeometry x="490" y="210" width="120" height="80" as="geometry" />
        </mxCell>
        <mxCell id="MLg9Y7SFyvmeRMdnVMhF-15" style="edgeStyle=orthogonalEdgeStyle;rounded=0;orthogonalLoop=1;jettySize=auto;html=1;entryX=1;entryY=0.5;entryDx=0;entryDy=0;" parent="1" source="MLg9Y7SFyvmeRMdnVMhF-12" target="MLg9Y7SFyvmeRMdnVMhF-7" edge="1">
          <mxGeometry relative="1" as="geometry" />
        </mxCell>
        <mxCell id="MLg9Y7SFyvmeRMdnVMhF-12" value="Request File" style="shape=document;whiteSpace=wrap;html=1;boundedLbl=1;" parent="1" vertex="1">
          <mxGeometry x="270" y="210" width="120" height="80" as="geometry" />
        </mxCell>
        <mxCell id="MLg9Y7SFyvmeRMdnVMhF-14" value="Response File" style="shape=document;whiteSpace=wrap;html=1;boundedLbl=1;" parent="1" vertex="1">
          <mxGeometry x="270" y="350" width="120" height="80" as="geometry" />
        </mxCell>
        <mxCell id="MLg9Y7SFyvmeRMdnVMhF-16" style="edgeStyle=orthogonalEdgeStyle;rounded=0;orthogonalLoop=1;jettySize=auto;html=1;entryX=-0.05;entryY=0.7;entryDx=0;entryDy=0;entryPerimeter=0;" parent="1" source="MLg9Y7SFyvmeRMdnVMhF-7" target="MLg9Y7SFyvmeRMdnVMhF-14" edge="1">
          <mxGeometry relative="1" as="geometry">
            <Array as="points">
              <mxPoint x="120" y="390" />
              <mxPoint x="264" y="390" />
            </Array>
          </mxGeometry>
        </mxCell>
        <mxCell id="MLg9Y7SFyvmeRMdnVMhF-17" value="SVES response process&lt;div&gt;Monday - Friday 7:12 am&lt;/div&gt;" style="ellipse;whiteSpace=wrap;html=1;" parent="1" vertex="1">
          <mxGeometry x="490" y="350" width="120" height="80" as="geometry" />
        </mxCell>
        <mxCell id="MLg9Y7SFyvmeRMdnVMhF-18" style="edgeStyle=orthogonalEdgeStyle;rounded=0;orthogonalLoop=1;jettySize=auto;html=1;entryX=0;entryY=0.6;entryDx=0;entryDy=0;entryPerimeter=0;" parent="1" source="MLg9Y7SFyvmeRMdnVMhF-14" target="MLg9Y7SFyvmeRMdnVMhF-17" edge="1">
          <mxGeometry relative="1" as="geometry" />
        </mxCell>
        <mxCell id="MLg9Y7SFyvmeRMdnVMhF-23" style="edgeStyle=orthogonalEdgeStyle;rounded=0;orthogonalLoop=1;jettySize=auto;html=1;entryX=1;entryY=0.5;entryDx=0;entryDy=0;" parent="1" source="MLg9Y7SFyvmeRMdnVMhF-19" target="MLg9Y7SFyvmeRMdnVMhF-22" edge="1">
          <mxGeometry relative="1" as="geometry">
            <Array as="points">
              <mxPoint x="740" y="526" />
            </Array>
          </mxGeometry>
        </mxCell>
        <mxCell id="MLg9Y7SFyvmeRMdnVMhF-19" value="SVES database" style="shape=cylinder3;whiteSpace=wrap;html=1;boundedLbl=1;backgroundOutline=1;size=15;" parent="1" vertex="1">
          <mxGeometry x="710" y="270" width="60" height="80" as="geometry" />
        </mxCell>
        <mxCell id="MLg9Y7SFyvmeRMdnVMhF-20" style="edgeStyle=orthogonalEdgeStyle;rounded=0;orthogonalLoop=1;jettySize=auto;html=1;entryX=0;entryY=0.5;entryDx=0;entryDy=0;entryPerimeter=0;" parent="1" source="MLg9Y7SFyvmeRMdnVMhF-17" target="MLg9Y7SFyvmeRMdnVMhF-19" edge="1">
          <mxGeometry relative="1" as="geometry" />
        </mxCell>
        <mxCell id="MLg9Y7SFyvmeRMdnVMhF-21" value="Azure Managed Instance" style="image;aspect=fixed;html=1;points=[];align=center;fontSize=12;image=img/lib/azure2/databases/SQL_Database.svg;" parent="1" vertex="1">
          <mxGeometry x="102" y="486" width="48" height="64" as="geometry" />
        </mxCell>
        <mxCell id="MLg9Y7SFyvmeRMdnVMhF-22" value="SVES refresh process&lt;div&gt;Monday - Friday 7:12 am&lt;/div&gt;" style="ellipse;whiteSpace=wrap;html=1;" parent="1" vertex="1">
          <mxGeometry x="500" y="486" width="120" height="80" as="geometry" />
        </mxCell>
        <mxCell id="MLg9Y7SFyvmeRMdnVMhF-26" value="SVES System" style="swimlane;whiteSpace=wrap;html=1;" parent="1" vertex="1">
          <mxGeometry x="210" y="180" width="440" height="270" as="geometry" />
        </mxCell>
        <mxCell id="MLg9Y7SFyvmeRMdnVMhF-24" style="edgeStyle=orthogonalEdgeStyle;rounded=0;orthogonalLoop=1;jettySize=auto;html=1;entryX=0.875;entryY=0.625;entryDx=0;entryDy=0;entryPerimeter=0;" parent="1" source="MLg9Y7SFyvmeRMdnVMhF-22" target="MLg9Y7SFyvmeRMdnVMhF-21" edge="1">
          <mxGeometry relative="1" as="geometry" />
        </mxCell>
      </root>
    </mxGraphModel>
  </diagram>
  <diagram id="FOEXgTCbALY-1axX_mEj" name="Future SVES">
    <mxGraphModel dx="1418" dy="752" grid="1" gridSize="10" guides="1" tooltips="1" connect="1" arrows="1" fold="1" page="1" pageScale="1" pageWidth="850" pageHeight="1100" math="0" shadow="0">
      <root>
        <mxCell id="0" />
        <mxCell id="1" parent="0" />
        <mxCell id="gPIpEHQpolBbuwWLKx7v-23" style="edgeStyle=orthogonalEdgeStyle;rounded=0;orthogonalLoop=1;jettySize=auto;html=1;" parent="1" source="gPIpEHQpolBbuwWLKx7v-24" target="gPIpEHQpolBbuwWLKx7v-28" edge="1">
          <mxGeometry relative="1" as="geometry" />
        </mxCell>
        <mxCell id="gPIpEHQpolBbuwWLKx7v-24" value="AWARE system" style="rounded=1;whiteSpace=wrap;html=1;" parent="1" vertex="1">
          <mxGeometry x="250" y="250" width="120" height="60" as="geometry" />
        </mxCell>
        <mxCell id="gPIpEHQpolBbuwWLKx7v-25" value="Actor" style="shape=umlActor;verticalLabelPosition=bottom;verticalAlign=top;html=1;outlineConnect=0;" parent="1" vertex="1">
          <mxGeometry x="140" y="260" width="30" height="60" as="geometry" />
        </mxCell>
        <mxCell id="gPIpEHQpolBbuwWLKx7v-26" style="edgeStyle=orthogonalEdgeStyle;rounded=0;orthogonalLoop=1;jettySize=auto;html=1;entryX=-0.167;entryY=0.667;entryDx=0;entryDy=0;entryPerimeter=0;" parent="1" source="gPIpEHQpolBbuwWLKx7v-25" target="gPIpEHQpolBbuwWLKx7v-24" edge="1">
          <mxGeometry relative="1" as="geometry" />
        </mxCell>
        <mxCell id="gPIpEHQpolBbuwWLKx7v-27" style="edgeStyle=orthogonalEdgeStyle;rounded=0;orthogonalLoop=1;jettySize=auto;html=1;" parent="1" source="gPIpEHQpolBbuwWLKx7v-28" edge="1">
          <mxGeometry relative="1" as="geometry">
            <mxPoint x="570" y="400" as="targetPoint" />
          </mxGeometry>
        </mxCell>
        <mxCell id="gPIpEHQpolBbuwWLKx7v-28" value="AWARE DB" style="shape=cylinder3;whiteSpace=wrap;html=1;boundedLbl=1;backgroundOutline=1;size=15;" parent="1" vertex="1">
          <mxGeometry x="590" y="240" width="60" height="80" as="geometry" />
        </mxCell>
        <mxCell id="gPIpEHQpolBbuwWLKx7v-29" value="SSA System" style="rounded=1;whiteSpace=wrap;html=1;" parent="1" vertex="1">
          <mxGeometry x="80" y="450" width="120" height="60" as="geometry" />
        </mxCell>
        <mxCell id="gPIpEHQpolBbuwWLKx7v-32" style="edgeStyle=orthogonalEdgeStyle;rounded=0;orthogonalLoop=1;jettySize=auto;html=1;entryX=1;entryY=0.5;entryDx=0;entryDy=0;exitX=0;exitY=0.5;exitDx=0;exitDy=0;exitPerimeter=0;" parent="1" source="gPIpEHQpolBbuwWLKx7v-46" target="gPIpEHQpolBbuwWLKx7v-29" edge="1">
          <mxGeometry relative="1" as="geometry">
            <mxPoint x="290" y="440" as="sourcePoint" />
          </mxGeometry>
        </mxCell>
        <mxCell id="gPIpEHQpolBbuwWLKx7v-38" style="edgeStyle=orthogonalEdgeStyle;rounded=0;orthogonalLoop=1;jettySize=auto;html=1;entryX=1;entryY=0.5;entryDx=0;entryDy=0;" parent="1" source="gPIpEHQpolBbuwWLKx7v-39" edge="1">
          <mxGeometry relative="1" as="geometry">
            <Array as="points">
              <mxPoint x="760" y="716" />
            </Array>
            <mxPoint x="640" y="716" as="targetPoint" />
          </mxGeometry>
        </mxCell>
        <mxCell id="gPIpEHQpolBbuwWLKx7v-39" value="SVES database" style="shape=cylinder3;whiteSpace=wrap;html=1;boundedLbl=1;backgroundOutline=1;size=15;" parent="1" vertex="1">
          <mxGeometry x="730" y="460" width="60" height="80" as="geometry" />
        </mxCell>
        <mxCell id="gPIpEHQpolBbuwWLKx7v-40" style="edgeStyle=orthogonalEdgeStyle;rounded=0;orthogonalLoop=1;jettySize=auto;html=1;entryX=0;entryY=0.5;entryDx=0;entryDy=0;entryPerimeter=0;" parent="1" target="gPIpEHQpolBbuwWLKx7v-39" edge="1">
          <mxGeometry relative="1" as="geometry">
            <mxPoint x="610" y="580" as="sourcePoint" />
            <Array as="points">
              <mxPoint x="610" y="581" />
              <mxPoint x="650" y="581" />
              <mxPoint x="650" y="500" />
            </Array>
          </mxGeometry>
        </mxCell>
        <mxCell id="gPIpEHQpolBbuwWLKx7v-41" value="Azure Managed Instance" style="image;aspect=fixed;html=1;points=[];align=center;fontSize=12;image=img/lib/azure2/databases/SQL_Database.svg;" parent="1" vertex="1">
          <mxGeometry x="122" y="676" width="48" height="64" as="geometry" />
        </mxCell>
        <mxCell id="gPIpEHQpolBbuwWLKx7v-43" value="SVES System" style="swimlane;whiteSpace=wrap;html=1;" parent="1" vertex="1">
          <mxGeometry x="240" y="380" width="440" height="270" as="geometry" />
        </mxCell>
        <mxCell id="gPIpEHQpolBbuwWLKx7v-46" value="Request file" style="verticalLabelPosition=bottom;html=1;verticalAlign=top;align=center;strokeColor=none;fillColor=#00BEF2;shape=mxgraph.azure.storage_blob;" parent="gPIpEHQpolBbuwWLKx7v-43" vertex="1">
          <mxGeometry x="95" y="45" width="50" height="45" as="geometry" />
        </mxCell>
        <mxCell id="qNEKp2SMUfAJs7Vq2Zbj-2" value="Request file" style="verticalLabelPosition=bottom;html=1;verticalAlign=top;align=center;strokeColor=none;fillColor=#00BEF2;shape=mxgraph.azure.storage_blob;" vertex="1" parent="gPIpEHQpolBbuwWLKx7v-43">
          <mxGeometry x="100" y="170" width="50" height="45" as="geometry" />
        </mxCell>
        <mxCell id="qNEKp2SMUfAJs7Vq2Zbj-5" value="SVES_Request_WebJob" style="image;aspect=fixed;html=1;points=[];align=center;fontSize=12;image=img/lib/azure2/other/Web_Jobs.svg;" vertex="1" parent="gPIpEHQpolBbuwWLKx7v-43">
          <mxGeometry x="290" y="33.5" width="66" height="68" as="geometry" />
        </mxCell>
        <mxCell id="qNEKp2SMUfAJs7Vq2Zbj-6" value="SVES_Response_WebJob" style="image;aspect=fixed;html=1;points=[];align=center;fontSize=12;image=img/lib/azure2/other/Web_Jobs.svg;" vertex="1" parent="gPIpEHQpolBbuwWLKx7v-43">
          <mxGeometry x="300" y="154" width="66" height="68" as="geometry" />
        </mxCell>
        <mxCell id="qNEKp2SMUfAJs7Vq2Zbj-9" style="edgeStyle=orthogonalEdgeStyle;rounded=0;orthogonalLoop=1;jettySize=auto;html=1;entryX=1;entryY=0.5;entryDx=0;entryDy=0;entryPerimeter=0;" edge="1" parent="gPIpEHQpolBbuwWLKx7v-43" source="qNEKp2SMUfAJs7Vq2Zbj-5" target="gPIpEHQpolBbuwWLKx7v-46">
          <mxGeometry relative="1" as="geometry" />
        </mxCell>
        <mxCell id="qNEKp2SMUfAJs7Vq2Zbj-10" style="edgeStyle=orthogonalEdgeStyle;rounded=0;orthogonalLoop=1;jettySize=auto;html=1;entryX=0.152;entryY=0.566;entryDx=0;entryDy=0;entryPerimeter=0;" edge="1" parent="gPIpEHQpolBbuwWLKx7v-43" source="qNEKp2SMUfAJs7Vq2Zbj-2" target="qNEKp2SMUfAJs7Vq2Zbj-6">
          <mxGeometry relative="1" as="geometry" />
        </mxCell>
        <mxCell id="gPIpEHQpolBbuwWLKx7v-44" style="edgeStyle=orthogonalEdgeStyle;rounded=0;orthogonalLoop=1;jettySize=auto;html=1;entryX=0.875;entryY=0.625;entryDx=0;entryDy=0;entryPerimeter=0;" parent="1" target="gPIpEHQpolBbuwWLKx7v-41" edge="1">
          <mxGeometry relative="1" as="geometry">
            <mxPoint x="520" y="716" as="sourcePoint" />
          </mxGeometry>
        </mxCell>
        <mxCell id="qNEKp2SMUfAJs7Vq2Zbj-3" style="edgeStyle=orthogonalEdgeStyle;rounded=0;orthogonalLoop=1;jettySize=auto;html=1;entryX=0;entryY=0.5;entryDx=0;entryDy=0;entryPerimeter=0;" edge="1" parent="1" source="gPIpEHQpolBbuwWLKx7v-29" target="qNEKp2SMUfAJs7Vq2Zbj-2">
          <mxGeometry relative="1" as="geometry">
            <Array as="points">
              <mxPoint x="140" y="573" />
              <mxPoint x="265" y="573" />
            </Array>
          </mxGeometry>
        </mxCell>
        <mxCell id="qNEKp2SMUfAJs7Vq2Zbj-11" value="SVES_Refresh_WebJob" style="image;aspect=fixed;html=1;points=[];align=center;fontSize=12;image=img/lib/azure2/other/Web_Jobs.svg;" vertex="1" parent="1">
          <mxGeometry x="550" y="676" width="66" height="68" as="geometry" />
        </mxCell>
      </root>
    </mxGraphModel>
  </diagram>
  <diagram id="YwWu048TEgHhXD1repnB" name="SVES_Response">
    <mxGraphModel dx="1418" dy="752" grid="1" gridSize="10" guides="1" tooltips="1" connect="1" arrows="1" fold="1" page="1" pageScale="1" pageWidth="850" pageHeight="1100" math="0" shadow="0">
      <root>
        <mxCell id="0" />
        <mxCell id="1" parent="0" />
        <mxCell id="rn0WZyYpXiQJ-BusRnu9-4" value="" style="edgeStyle=orthogonalEdgeStyle;rounded=0;orthogonalLoop=1;jettySize=auto;html=1;" edge="1" parent="1" source="rn0WZyYpXiQJ-BusRnu9-1" target="rn0WZyYpXiQJ-BusRnu9-3">
          <mxGeometry relative="1" as="geometry" />
        </mxCell>
        <mxCell id="rn0WZyYpXiQJ-BusRnu9-1" value="Delete Records in Staging table" style="rounded=1;whiteSpace=wrap;html=1;" vertex="1" parent="1">
          <mxGeometry x="350" y="20" width="120" height="60" as="geometry" />
        </mxCell>
        <mxCell id="rn0WZyYpXiQJ-BusRnu9-6" value="" style="edgeStyle=orthogonalEdgeStyle;rounded=0;orthogonalLoop=1;jettySize=auto;html=1;" edge="1" parent="1" source="rn0WZyYpXiQJ-BusRnu9-3" target="rn0WZyYpXiQJ-BusRnu9-5">
          <mxGeometry relative="1" as="geometry" />
        </mxCell>
        <mxCell id="rn0WZyYpXiQJ-BusRnu9-3" value="Load No Benefits record" style="whiteSpace=wrap;html=1;rounded=1;" vertex="1" parent="1">
          <mxGeometry x="110" y="110" width="120" height="60" as="geometry" />
        </mxCell>
        <mxCell id="rn0WZyYpXiQJ-BusRnu9-8" value="" style="edgeStyle=orthogonalEdgeStyle;rounded=0;orthogonalLoop=1;jettySize=auto;html=1;" edge="1" parent="1" source="rn0WZyYpXiQJ-BusRnu9-5" target="rn0WZyYpXiQJ-BusRnu9-7">
          <mxGeometry relative="1" as="geometry" />
        </mxCell>
        <mxCell id="rn0WZyYpXiQJ-BusRnu9-5" value="Load Tye II records" style="whiteSpace=wrap;html=1;rounded=1;" vertex="1" parent="1">
          <mxGeometry x="290" y="110" width="120" height="60" as="geometry" />
        </mxCell>
        <mxCell id="rn0WZyYpXiQJ-BusRnu9-10" value="" style="edgeStyle=orthogonalEdgeStyle;rounded=0;orthogonalLoop=1;jettySize=auto;html=1;" edge="1" parent="1" source="rn0WZyYpXiQJ-BusRnu9-7" target="rn0WZyYpXiQJ-BusRnu9-9">
          <mxGeometry relative="1" as="geometry" />
        </mxCell>
        <mxCell id="rn0WZyYpXiQJ-BusRnu9-7" value="Load Type XVI records" style="whiteSpace=wrap;html=1;rounded=1;" vertex="1" parent="1">
          <mxGeometry x="450" y="110" width="120" height="60" as="geometry" />
        </mxCell>
        <mxCell id="rn0WZyYpXiQJ-BusRnu9-12" value="" style="edgeStyle=orthogonalEdgeStyle;rounded=0;orthogonalLoop=1;jettySize=auto;html=1;" edge="1" parent="1" source="rn0WZyYpXiQJ-BusRnu9-9" target="rn0WZyYpXiQJ-BusRnu9-11">
          <mxGeometry relative="1" as="geometry">
            <Array as="points">
              <mxPoint x="680" y="240" />
            </Array>
          </mxGeometry>
        </mxCell>
        <mxCell id="rn0WZyYpXiQJ-BusRnu9-9" value="Load both Type II and Type XVI records" style="whiteSpace=wrap;html=1;rounded=1;" vertex="1" parent="1">
          <mxGeometry x="620" y="110" width="120" height="60" as="geometry" />
        </mxCell>
        <mxCell id="rn0WZyYpXiQJ-BusRnu9-14" value="" style="edgeStyle=orthogonalEdgeStyle;rounded=0;orthogonalLoop=1;jettySize=auto;html=1;" edge="1" parent="1" source="rn0WZyYpXiQJ-BusRnu9-11" target="rn0WZyYpXiQJ-BusRnu9-13">
          <mxGeometry relative="1" as="geometry" />
        </mxCell>
        <mxCell id="rn0WZyYpXiQJ-BusRnu9-11" value="Pre-Update Data" style="whiteSpace=wrap;html=1;rounded=1;" vertex="1" parent="1">
          <mxGeometry x="365" y="210" width="120" height="60" as="geometry" />
        </mxCell>
        <mxCell id="rn0WZyYpXiQJ-BusRnu9-16" value="" style="edgeStyle=orthogonalEdgeStyle;rounded=0;orthogonalLoop=1;jettySize=auto;html=1;" edge="1" parent="1" source="rn0WZyYpXiQJ-BusRnu9-13" target="rn0WZyYpXiQJ-BusRnu9-15">
          <mxGeometry relative="1" as="geometry" />
        </mxCell>
        <mxCell id="rn0WZyYpXiQJ-BusRnu9-13" value="Validate No Benefits" style="whiteSpace=wrap;html=1;rounded=1;" vertex="1" parent="1">
          <mxGeometry x="80" y="290" width="120" height="60" as="geometry" />
        </mxCell>
        <mxCell id="rn0WZyYpXiQJ-BusRnu9-18" value="" style="edgeStyle=orthogonalEdgeStyle;rounded=0;orthogonalLoop=1;jettySize=auto;html=1;" edge="1" parent="1" source="rn0WZyYpXiQJ-BusRnu9-15" target="rn0WZyYpXiQJ-BusRnu9-17">
          <mxGeometry relative="1" as="geometry" />
        </mxCell>
        <mxCell id="rn0WZyYpXiQJ-BusRnu9-15" value="Validate Title II" style="whiteSpace=wrap;html=1;rounded=1;" vertex="1" parent="1">
          <mxGeometry x="260" y="290" width="120" height="60" as="geometry" />
        </mxCell>
        <mxCell id="rn0WZyYpXiQJ-BusRnu9-20" value="" style="edgeStyle=orthogonalEdgeStyle;rounded=0;orthogonalLoop=1;jettySize=auto;html=1;" edge="1" parent="1" source="rn0WZyYpXiQJ-BusRnu9-17" target="rn0WZyYpXiQJ-BusRnu9-19">
          <mxGeometry relative="1" as="geometry" />
        </mxCell>
        <mxCell id="rn0WZyYpXiQJ-BusRnu9-17" value="Validate Title XVI" style="whiteSpace=wrap;html=1;rounded=1;" vertex="1" parent="1">
          <mxGeometry x="460" y="290" width="120" height="60" as="geometry" />
        </mxCell>
        <mxCell id="rn0WZyYpXiQJ-BusRnu9-22" value="" style="edgeStyle=orthogonalEdgeStyle;rounded=0;orthogonalLoop=1;jettySize=auto;html=1;" edge="1" parent="1" source="rn0WZyYpXiQJ-BusRnu9-19" target="rn0WZyYpXiQJ-BusRnu9-21">
          <mxGeometry relative="1" as="geometry">
            <Array as="points">
              <mxPoint x="710" y="410" />
            </Array>
          </mxGeometry>
        </mxCell>
        <mxCell id="rn0WZyYpXiQJ-BusRnu9-19" value="Validate both Title II and Title XVI" style="whiteSpace=wrap;html=1;rounded=1;" vertex="1" parent="1">
          <mxGeometry x="660" y="290" width="120" height="60" as="geometry" />
        </mxCell>
        <mxCell id="rn0WZyYpXiQJ-BusRnu9-24" value="" style="edgeStyle=orthogonalEdgeStyle;rounded=0;orthogonalLoop=1;jettySize=auto;html=1;" edge="1" parent="1" source="rn0WZyYpXiQJ-BusRnu9-21" target="rn0WZyYpXiQJ-BusRnu9-23">
          <mxGeometry relative="1" as="geometry" />
        </mxCell>
        <mxCell id="rn0WZyYpXiQJ-BusRnu9-21" value="Update Aware Log preUpdate data" style="whiteSpace=wrap;html=1;rounded=1;" vertex="1" parent="1">
          <mxGeometry x="365" y="380" width="120" height="60" as="geometry" />
        </mxCell>
        <mxCell id="rn0WZyYpXiQJ-BusRnu9-23" value="Create VES Stats Report" style="whiteSpace=wrap;html=1;rounded=1;" vertex="1" parent="1">
          <mxGeometry x="365" y="470" width="120" height="60" as="geometry" />
        </mxCell>
      </root>
    </mxGraphModel>
  </diagram>
  <diagram id="945O-W21DyEdW42Vvx96" name="Budget Access DB Migration">
    <mxGraphModel dx="1418" dy="752" grid="1" gridSize="10" guides="1" tooltips="1" connect="1" arrows="1" fold="1" page="1" pageScale="1" pageWidth="850" pageHeight="1100" math="0" shadow="0">
      <root>
        <mxCell id="0" />
        <mxCell id="1" parent="0" />
        <mxCell id="xQXGiXZCaaJI95hN2ylU-27" value="" style="edgeStyle=orthogonalEdgeStyle;rounded=0;orthogonalLoop=1;jettySize=auto;html=1;" edge="1" parent="1" source="xQXGiXZCaaJI95hN2ylU-1" target="xQXGiXZCaaJI95hN2ylU-14">
          <mxGeometry relative="1" as="geometry" />
        </mxCell>
        <mxCell id="xQXGiXZCaaJI95hN2ylU-1" value="CostCenter" style="shape=table;startSize=30;container=1;collapsible=1;childLayout=tableLayout;fixedRows=1;rowLines=0;fontStyle=1;align=center;resizeLast=1;html=1;" vertex="1" parent="1">
          <mxGeometry x="120" y="60" width="180" height="150" as="geometry" />
        </mxCell>
        <mxCell id="xQXGiXZCaaJI95hN2ylU-2" value="" style="shape=tableRow;horizontal=0;startSize=0;swimlaneHead=0;swimlaneBody=0;fillColor=none;collapsible=0;dropTarget=0;points=[[0,0.5],[1,0.5]];portConstraint=eastwest;top=0;left=0;right=0;bottom=1;" vertex="1" parent="xQXGiXZCaaJI95hN2ylU-1">
          <mxGeometry y="30" width="180" height="30" as="geometry" />
        </mxCell>
        <mxCell id="xQXGiXZCaaJI95hN2ylU-3" value="PK" style="shape=partialRectangle;connectable=0;fillColor=none;top=0;left=0;bottom=0;right=0;fontStyle=1;overflow=hidden;whiteSpace=wrap;html=1;" vertex="1" parent="xQXGiXZCaaJI95hN2ylU-2">
          <mxGeometry width="30" height="30" as="geometry">
            <mxRectangle width="30" height="30" as="alternateBounds" />
          </mxGeometry>
        </mxCell>
        <mxCell id="xQXGiXZCaaJI95hN2ylU-4" value="UniqueID" style="shape=partialRectangle;connectable=0;fillColor=none;top=0;left=0;bottom=0;right=0;align=left;spacingLeft=6;fontStyle=5;overflow=hidden;whiteSpace=wrap;html=1;" vertex="1" parent="xQXGiXZCaaJI95hN2ylU-2">
          <mxGeometry x="30" width="150" height="30" as="geometry">
            <mxRectangle width="150" height="30" as="alternateBounds" />
          </mxGeometry>
        </mxCell>
        <mxCell id="xQXGiXZCaaJI95hN2ylU-5" value="" style="shape=tableRow;horizontal=0;startSize=0;swimlaneHead=0;swimlaneBody=0;fillColor=none;collapsible=0;dropTarget=0;points=[[0,0.5],[1,0.5]];portConstraint=eastwest;top=0;left=0;right=0;bottom=0;" vertex="1" parent="xQXGiXZCaaJI95hN2ylU-1">
          <mxGeometry y="60" width="180" height="30" as="geometry" />
        </mxCell>
        <mxCell id="xQXGiXZCaaJI95hN2ylU-6" value="" style="shape=partialRectangle;connectable=0;fillColor=none;top=0;left=0;bottom=0;right=0;editable=1;overflow=hidden;whiteSpace=wrap;html=1;" vertex="1" parent="xQXGiXZCaaJI95hN2ylU-5">
          <mxGeometry width="30" height="30" as="geometry">
            <mxRectangle width="30" height="30" as="alternateBounds" />
          </mxGeometry>
        </mxCell>
        <mxCell id="xQXGiXZCaaJI95hN2ylU-7" value="Row 1" style="shape=partialRectangle;connectable=0;fillColor=none;top=0;left=0;bottom=0;right=0;align=left;spacingLeft=6;overflow=hidden;whiteSpace=wrap;html=1;" vertex="1" parent="xQXGiXZCaaJI95hN2ylU-5">
          <mxGeometry x="30" width="150" height="30" as="geometry">
            <mxRectangle width="150" height="30" as="alternateBounds" />
          </mxGeometry>
        </mxCell>
        <mxCell id="xQXGiXZCaaJI95hN2ylU-8" value="" style="shape=tableRow;horizontal=0;startSize=0;swimlaneHead=0;swimlaneBody=0;fillColor=none;collapsible=0;dropTarget=0;points=[[0,0.5],[1,0.5]];portConstraint=eastwest;top=0;left=0;right=0;bottom=0;" vertex="1" parent="xQXGiXZCaaJI95hN2ylU-1">
          <mxGeometry y="90" width="180" height="30" as="geometry" />
        </mxCell>
        <mxCell id="xQXGiXZCaaJI95hN2ylU-9" value="" style="shape=partialRectangle;connectable=0;fillColor=none;top=0;left=0;bottom=0;right=0;editable=1;overflow=hidden;whiteSpace=wrap;html=1;" vertex="1" parent="xQXGiXZCaaJI95hN2ylU-8">
          <mxGeometry width="30" height="30" as="geometry">
            <mxRectangle width="30" height="30" as="alternateBounds" />
          </mxGeometry>
        </mxCell>
        <mxCell id="xQXGiXZCaaJI95hN2ylU-10" value="Row 2" style="shape=partialRectangle;connectable=0;fillColor=none;top=0;left=0;bottom=0;right=0;align=left;spacingLeft=6;overflow=hidden;whiteSpace=wrap;html=1;" vertex="1" parent="xQXGiXZCaaJI95hN2ylU-8">
          <mxGeometry x="30" width="150" height="30" as="geometry">
            <mxRectangle width="150" height="30" as="alternateBounds" />
          </mxGeometry>
        </mxCell>
        <mxCell id="xQXGiXZCaaJI95hN2ylU-11" value="" style="shape=tableRow;horizontal=0;startSize=0;swimlaneHead=0;swimlaneBody=0;fillColor=none;collapsible=0;dropTarget=0;points=[[0,0.5],[1,0.5]];portConstraint=eastwest;top=0;left=0;right=0;bottom=0;" vertex="1" parent="xQXGiXZCaaJI95hN2ylU-1">
          <mxGeometry y="120" width="180" height="30" as="geometry" />
        </mxCell>
        <mxCell id="xQXGiXZCaaJI95hN2ylU-12" value="" style="shape=partialRectangle;connectable=0;fillColor=none;top=0;left=0;bottom=0;right=0;editable=1;overflow=hidden;whiteSpace=wrap;html=1;" vertex="1" parent="xQXGiXZCaaJI95hN2ylU-11">
          <mxGeometry width="30" height="30" as="geometry">
            <mxRectangle width="30" height="30" as="alternateBounds" />
          </mxGeometry>
        </mxCell>
        <mxCell id="xQXGiXZCaaJI95hN2ylU-13" value="Row 3" style="shape=partialRectangle;connectable=0;fillColor=none;top=0;left=0;bottom=0;right=0;align=left;spacingLeft=6;overflow=hidden;whiteSpace=wrap;html=1;" vertex="1" parent="xQXGiXZCaaJI95hN2ylU-11">
          <mxGeometry x="30" width="150" height="30" as="geometry">
            <mxRectangle width="150" height="30" as="alternateBounds" />
          </mxGeometry>
        </mxCell>
        <mxCell id="xQXGiXZCaaJI95hN2ylU-41" value="" style="edgeStyle=orthogonalEdgeStyle;rounded=0;orthogonalLoop=1;jettySize=auto;html=1;" edge="1" parent="1" source="xQXGiXZCaaJI95hN2ylU-14" target="xQXGiXZCaaJI95hN2ylU-28">
          <mxGeometry relative="1" as="geometry" />
        </mxCell>
        <mxCell id="xQXGiXZCaaJI95hN2ylU-14" value="BudgetSummary" style="shape=table;startSize=30;container=1;collapsible=1;childLayout=tableLayout;fixedRows=1;rowLines=0;fontStyle=1;align=center;resizeLast=1;html=1;" vertex="1" parent="1">
          <mxGeometry x="320" y="280" width="180" height="150" as="geometry" />
        </mxCell>
        <mxCell id="xQXGiXZCaaJI95hN2ylU-15" value="" style="shape=tableRow;horizontal=0;startSize=0;swimlaneHead=0;swimlaneBody=0;fillColor=none;collapsible=0;dropTarget=0;points=[[0,0.5],[1,0.5]];portConstraint=eastwest;top=0;left=0;right=0;bottom=1;" vertex="1" parent="xQXGiXZCaaJI95hN2ylU-14">
          <mxGeometry y="30" width="180" height="30" as="geometry" />
        </mxCell>
        <mxCell id="xQXGiXZCaaJI95hN2ylU-16" value="PK" style="shape=partialRectangle;connectable=0;fillColor=none;top=0;left=0;bottom=0;right=0;fontStyle=1;overflow=hidden;whiteSpace=wrap;html=1;" vertex="1" parent="xQXGiXZCaaJI95hN2ylU-15">
          <mxGeometry width="30" height="30" as="geometry">
            <mxRectangle width="30" height="30" as="alternateBounds" />
          </mxGeometry>
        </mxCell>
        <mxCell id="xQXGiXZCaaJI95hN2ylU-17" value="UniqueID" style="shape=partialRectangle;connectable=0;fillColor=none;top=0;left=0;bottom=0;right=0;align=left;spacingLeft=6;fontStyle=5;overflow=hidden;whiteSpace=wrap;html=1;" vertex="1" parent="xQXGiXZCaaJI95hN2ylU-15">
          <mxGeometry x="30" width="150" height="30" as="geometry">
            <mxRectangle width="150" height="30" as="alternateBounds" />
          </mxGeometry>
        </mxCell>
        <mxCell id="xQXGiXZCaaJI95hN2ylU-18" value="" style="shape=tableRow;horizontal=0;startSize=0;swimlaneHead=0;swimlaneBody=0;fillColor=none;collapsible=0;dropTarget=0;points=[[0,0.5],[1,0.5]];portConstraint=eastwest;top=0;left=0;right=0;bottom=0;" vertex="1" parent="xQXGiXZCaaJI95hN2ylU-14">
          <mxGeometry y="60" width="180" height="30" as="geometry" />
        </mxCell>
        <mxCell id="xQXGiXZCaaJI95hN2ylU-19" value="" style="shape=partialRectangle;connectable=0;fillColor=none;top=0;left=0;bottom=0;right=0;editable=1;overflow=hidden;whiteSpace=wrap;html=1;" vertex="1" parent="xQXGiXZCaaJI95hN2ylU-18">
          <mxGeometry width="30" height="30" as="geometry">
            <mxRectangle width="30" height="30" as="alternateBounds" />
          </mxGeometry>
        </mxCell>
        <mxCell id="xQXGiXZCaaJI95hN2ylU-20" value="CostCenterId" style="shape=partialRectangle;connectable=0;fillColor=none;top=0;left=0;bottom=0;right=0;align=left;spacingLeft=6;overflow=hidden;whiteSpace=wrap;html=1;" vertex="1" parent="xQXGiXZCaaJI95hN2ylU-18">
          <mxGeometry x="30" width="150" height="30" as="geometry">
            <mxRectangle width="150" height="30" as="alternateBounds" />
          </mxGeometry>
        </mxCell>
        <mxCell id="xQXGiXZCaaJI95hN2ylU-21" value="" style="shape=tableRow;horizontal=0;startSize=0;swimlaneHead=0;swimlaneBody=0;fillColor=none;collapsible=0;dropTarget=0;points=[[0,0.5],[1,0.5]];portConstraint=eastwest;top=0;left=0;right=0;bottom=0;" vertex="1" parent="xQXGiXZCaaJI95hN2ylU-14">
          <mxGeometry y="90" width="180" height="30" as="geometry" />
        </mxCell>
        <mxCell id="xQXGiXZCaaJI95hN2ylU-22" value="" style="shape=partialRectangle;connectable=0;fillColor=none;top=0;left=0;bottom=0;right=0;editable=1;overflow=hidden;whiteSpace=wrap;html=1;" vertex="1" parent="xQXGiXZCaaJI95hN2ylU-21">
          <mxGeometry width="30" height="30" as="geometry">
            <mxRectangle width="30" height="30" as="alternateBounds" />
          </mxGeometry>
        </mxCell>
        <mxCell id="xQXGiXZCaaJI95hN2ylU-23" value="Row 2" style="shape=partialRectangle;connectable=0;fillColor=none;top=0;left=0;bottom=0;right=0;align=left;spacingLeft=6;overflow=hidden;whiteSpace=wrap;html=1;" vertex="1" parent="xQXGiXZCaaJI95hN2ylU-21">
          <mxGeometry x="30" width="150" height="30" as="geometry">
            <mxRectangle width="150" height="30" as="alternateBounds" />
          </mxGeometry>
        </mxCell>
        <mxCell id="xQXGiXZCaaJI95hN2ylU-24" value="" style="shape=tableRow;horizontal=0;startSize=0;swimlaneHead=0;swimlaneBody=0;fillColor=none;collapsible=0;dropTarget=0;points=[[0,0.5],[1,0.5]];portConstraint=eastwest;top=0;left=0;right=0;bottom=0;" vertex="1" parent="xQXGiXZCaaJI95hN2ylU-14">
          <mxGeometry y="120" width="180" height="30" as="geometry" />
        </mxCell>
        <mxCell id="xQXGiXZCaaJI95hN2ylU-25" value="" style="shape=partialRectangle;connectable=0;fillColor=none;top=0;left=0;bottom=0;right=0;editable=1;overflow=hidden;whiteSpace=wrap;html=1;" vertex="1" parent="xQXGiXZCaaJI95hN2ylU-24">
          <mxGeometry width="30" height="30" as="geometry">
            <mxRectangle width="30" height="30" as="alternateBounds" />
          </mxGeometry>
        </mxCell>
        <mxCell id="xQXGiXZCaaJI95hN2ylU-26" value="Row 3" style="shape=partialRectangle;connectable=0;fillColor=none;top=0;left=0;bottom=0;right=0;align=left;spacingLeft=6;overflow=hidden;whiteSpace=wrap;html=1;" vertex="1" parent="xQXGiXZCaaJI95hN2ylU-24">
          <mxGeometry x="30" width="150" height="30" as="geometry">
            <mxRectangle width="150" height="30" as="alternateBounds" />
          </mxGeometry>
        </mxCell>
        <mxCell id="xQXGiXZCaaJI95hN2ylU-28" value="BudgetDetail" style="shape=table;startSize=30;container=1;collapsible=1;childLayout=tableLayout;fixedRows=1;rowLines=0;fontStyle=1;align=center;resizeLast=1;html=1;" vertex="1" parent="1">
          <mxGeometry x="560" y="450" width="180" height="150" as="geometry" />
        </mxCell>
        <mxCell id="xQXGiXZCaaJI95hN2ylU-29" value="" style="shape=tableRow;horizontal=0;startSize=0;swimlaneHead=0;swimlaneBody=0;fillColor=none;collapsible=0;dropTarget=0;points=[[0,0.5],[1,0.5]];portConstraint=eastwest;top=0;left=0;right=0;bottom=1;" vertex="1" parent="xQXGiXZCaaJI95hN2ylU-28">
          <mxGeometry y="30" width="180" height="30" as="geometry" />
        </mxCell>
        <mxCell id="xQXGiXZCaaJI95hN2ylU-30" value="PK" style="shape=partialRectangle;connectable=0;fillColor=none;top=0;left=0;bottom=0;right=0;fontStyle=1;overflow=hidden;whiteSpace=wrap;html=1;" vertex="1" parent="xQXGiXZCaaJI95hN2ylU-29">
          <mxGeometry width="30" height="30" as="geometry">
            <mxRectangle width="30" height="30" as="alternateBounds" />
          </mxGeometry>
        </mxCell>
        <mxCell id="xQXGiXZCaaJI95hN2ylU-31" value="UniqueID" style="shape=partialRectangle;connectable=0;fillColor=none;top=0;left=0;bottom=0;right=0;align=left;spacingLeft=6;fontStyle=5;overflow=hidden;whiteSpace=wrap;html=1;" vertex="1" parent="xQXGiXZCaaJI95hN2ylU-29">
          <mxGeometry x="30" width="150" height="30" as="geometry">
            <mxRectangle width="150" height="30" as="alternateBounds" />
          </mxGeometry>
        </mxCell>
        <mxCell id="xQXGiXZCaaJI95hN2ylU-32" value="" style="shape=tableRow;horizontal=0;startSize=0;swimlaneHead=0;swimlaneBody=0;fillColor=none;collapsible=0;dropTarget=0;points=[[0,0.5],[1,0.5]];portConstraint=eastwest;top=0;left=0;right=0;bottom=0;" vertex="1" parent="xQXGiXZCaaJI95hN2ylU-28">
          <mxGeometry y="60" width="180" height="30" as="geometry" />
        </mxCell>
        <mxCell id="xQXGiXZCaaJI95hN2ylU-33" value="" style="shape=partialRectangle;connectable=0;fillColor=none;top=0;left=0;bottom=0;right=0;editable=1;overflow=hidden;whiteSpace=wrap;html=1;" vertex="1" parent="xQXGiXZCaaJI95hN2ylU-32">
          <mxGeometry width="30" height="30" as="geometry">
            <mxRectangle width="30" height="30" as="alternateBounds" />
          </mxGeometry>
        </mxCell>
        <mxCell id="xQXGiXZCaaJI95hN2ylU-34" value="BudgetSummaryId" style="shape=partialRectangle;connectable=0;fillColor=none;top=0;left=0;bottom=0;right=0;align=left;spacingLeft=6;overflow=hidden;whiteSpace=wrap;html=1;" vertex="1" parent="xQXGiXZCaaJI95hN2ylU-32">
          <mxGeometry x="30" width="150" height="30" as="geometry">
            <mxRectangle width="150" height="30" as="alternateBounds" />
          </mxGeometry>
        </mxCell>
        <mxCell id="xQXGiXZCaaJI95hN2ylU-35" value="" style="shape=tableRow;horizontal=0;startSize=0;swimlaneHead=0;swimlaneBody=0;fillColor=none;collapsible=0;dropTarget=0;points=[[0,0.5],[1,0.5]];portConstraint=eastwest;top=0;left=0;right=0;bottom=0;" vertex="1" parent="xQXGiXZCaaJI95hN2ylU-28">
          <mxGeometry y="90" width="180" height="30" as="geometry" />
        </mxCell>
        <mxCell id="xQXGiXZCaaJI95hN2ylU-36" value="" style="shape=partialRectangle;connectable=0;fillColor=none;top=0;left=0;bottom=0;right=0;editable=1;overflow=hidden;whiteSpace=wrap;html=1;" vertex="1" parent="xQXGiXZCaaJI95hN2ylU-35">
          <mxGeometry width="30" height="30" as="geometry">
            <mxRectangle width="30" height="30" as="alternateBounds" />
          </mxGeometry>
        </mxCell>
        <mxCell id="xQXGiXZCaaJI95hN2ylU-37" value="Row 2" style="shape=partialRectangle;connectable=0;fillColor=none;top=0;left=0;bottom=0;right=0;align=left;spacingLeft=6;overflow=hidden;whiteSpace=wrap;html=1;" vertex="1" parent="xQXGiXZCaaJI95hN2ylU-35">
          <mxGeometry x="30" width="150" height="30" as="geometry">
            <mxRectangle width="150" height="30" as="alternateBounds" />
          </mxGeometry>
        </mxCell>
        <mxCell id="xQXGiXZCaaJI95hN2ylU-38" value="" style="shape=tableRow;horizontal=0;startSize=0;swimlaneHead=0;swimlaneBody=0;fillColor=none;collapsible=0;dropTarget=0;points=[[0,0.5],[1,0.5]];portConstraint=eastwest;top=0;left=0;right=0;bottom=0;" vertex="1" parent="xQXGiXZCaaJI95hN2ylU-28">
          <mxGeometry y="120" width="180" height="30" as="geometry" />
        </mxCell>
        <mxCell id="xQXGiXZCaaJI95hN2ylU-39" value="" style="shape=partialRectangle;connectable=0;fillColor=none;top=0;left=0;bottom=0;right=0;editable=1;overflow=hidden;whiteSpace=wrap;html=1;" vertex="1" parent="xQXGiXZCaaJI95hN2ylU-38">
          <mxGeometry width="30" height="30" as="geometry">
            <mxRectangle width="30" height="30" as="alternateBounds" />
          </mxGeometry>
        </mxCell>
        <mxCell id="xQXGiXZCaaJI95hN2ylU-40" value="Row 3" style="shape=partialRectangle;connectable=0;fillColor=none;top=0;left=0;bottom=0;right=0;align=left;spacingLeft=6;overflow=hidden;whiteSpace=wrap;html=1;" vertex="1" parent="xQXGiXZCaaJI95hN2ylU-38">
          <mxGeometry x="30" width="150" height="30" as="geometry">
            <mxRectangle width="150" height="30" as="alternateBounds" />
          </mxGeometry>
        </mxCell>
      </root>
    </mxGraphModel>
  </diagram>
</mxfile>
